REM DIRINDEX 1\2\6,1\2\7,1\2\8,1\2\9,1\3\10,1\3\11,1\4\12,1\4\13,1\4\14,1\5\15,1\5\16,1\5\17
REM DIRNAME cjc029,folder01,folder02,folder03,folder04,folder05,folder06,folder07,folder08,folder09,folder10,folder11,folder12,folder13,folder14,folder15,folder16
TITLE ""
FILE "1400_3_sec02_0150_0165.mp3" MP3
  TRACK 01 AUDIO
    TITLE "0:"
    INDEX 01 00:00:00
  TRACK 02 AUDIO
    TITLE "17:cjc029_4727"
    INDEX 01 00:00:15
  TRACK 03 AUDIO
    TITLE "0:"
    INDEX 01 00:02:28
  TRACK 04 AUDIO
    TITLE "16:cjc029_4728"
    INDEX 01 00:02:38
  TRACK 05 AUDIO
    TITLE "0:"
    INDEX 01 00:03:57
  TRACK 06 AUDIO
    TITLE "17:cjc029_4729"
    INDEX 01 00:04:44
  TRACK 07 AUDIO
    TITLE "0:"
    INDEX 01 00:05:57
  TRACK 08 AUDIO
    TITLE "16:cjc029_4730"
    INDEX 01 00:05:63
  TRACK 09 AUDIO
    TITLE "0:"
    INDEX 01 00:06:73
  TRACK 10 AUDIO
    TITLE "17:cjc029_4731"
    INDEX 01 00:07:60
  TRACK 11 AUDIO
    TITLE "0:"
    INDEX 01 00:09:06
  TRACK 12 AUDIO
    TITLE "16:cjc029_4732"
    INDEX 01 00:09:14
  TRACK 13 AUDIO
    TITLE "0:"
    INDEX 01 00:10:35
  TRACK 14 AUDIO
    TITLE "17:cjc029_4733"
    INDEX 01 00:11:23
  TRACK 15 AUDIO
    TITLE "0:"
    INDEX 01 00:12:40
  TRACK 16 AUDIO
    TITLE "16:cjc029_4734"
    INDEX 01 00:12:44
  TRACK 17 AUDIO
    TITLE "0:"
    INDEX 01 00:14:02
  TRACK 18 AUDIO
    TITLE "17:cjc029_4735"
    INDEX 01 00:14:62
  TRACK 19 AUDIO
    TITLE "0:"
    INDEX 01 00:15:72
  TRACK 20 AUDIO
    TITLE "16:cjc029_4736"
    INDEX 01 00:16:04
  TRACK 21 AUDIO
    TITLE "0:"
    INDEX 01 00:17:14
  TRACK 22 AUDIO
    TITLE "17:cjc029_4737"
    INDEX 01 00:18:03
  TRACK 23 AUDIO
    TITLE "0:"
    INDEX 01 00:19:24
  TRACK 24 AUDIO
    TITLE "16:cjc029_4738"
    INDEX 01 00:19:26
  TRACK 25 AUDIO
    TITLE "0:"
    INDEX 01 00:20:39
  TRACK 26 AUDIO
    TITLE "17:cjc029_4739"
    INDEX 01 00:21:25
  TRACK 27 AUDIO
    TITLE "0:"
    INDEX 01 00:22:42
  TRACK 28 AUDIO
    TITLE "16:cjc029_4740"
    INDEX 01 00:22:48
  TRACK 29 AUDIO
    TITLE "0:"
    INDEX 01 00:24:02
  TRACK 30 AUDIO
    TITLE "17:cjc029_4741"
    INDEX 01 00:24:65
  TRACK 31 AUDIO
    TITLE "0:"
    INDEX 01 00:25:68
  TRACK 32 AUDIO
    TITLE "16:cjc029_4742"
    INDEX 01 00:25:72
  TRACK 33 AUDIO
    TITLE "0:"
    INDEX 01 00:27:14
  TRACK 34 AUDIO
    TITLE "17:cjc029_4743"
    INDEX 01 00:28:00
  TRACK 35 AUDIO
    TITLE "0:"
    INDEX 01 00:30:30
  TRACK 36 AUDIO
    TITLE "16:cjc029_4744"
    INDEX 01 00:30:36
  TRACK 37 AUDIO
    TITLE "0:"
    INDEX 01 00:31:37
  TRACK 38 AUDIO
    TITLE "17:cjc029_4745"
    INDEX 01 00:32:21
  TRACK 39 AUDIO
    TITLE "0:"
    INDEX 01 00:33:22
  TRACK 40 AUDIO
    TITLE "16:cjc029_4746"
    INDEX 01 00:33:36
  TRACK 41 AUDIO
    TITLE "0:"
    INDEX 01 00:34:34
  TRACK 42 AUDIO
    TITLE "17:cjc029_4747"
    INDEX 01 00:35:21
  TRACK 43 AUDIO
    TITLE "0:"
    INDEX 01 00:37:42
  TRACK 44 AUDIO
    TITLE "16:cjc029_4748"
    INDEX 01 00:37:50
  TRACK 45 AUDIO
    TITLE "0:"
    INDEX 01 00:38:55
  TRACK 46 AUDIO
    TITLE "17:cjc029_4749"
    INDEX 01 00:39:41
  TRACK 47 AUDIO
    TITLE "0:"
    INDEX 01 00:40:32
  TRACK 48 AUDIO
    TITLE "16:cjc029_4750"
    INDEX 01 00:40:38
  TRACK 49 AUDIO
    TITLE "0:"
    INDEX 01 00:41:53
  TRACK 50 AUDIO
    TITLE "17:cjc029_4751"
    INDEX 01 00:42:37
  TRACK 51 AUDIO
    TITLE "0:"
    INDEX 01 00:43:19
  TRACK 52 AUDIO
    TITLE "16:cjc029_4752"
    INDEX 01 00:43:31
  TRACK 53 AUDIO
    TITLE "0:"
    INDEX 01 00:44:32
  TRACK 54 AUDIO
    TITLE "17:cjc029_4753"
    INDEX 01 00:45:14
  TRACK 55 AUDIO
    TITLE "0:"
    INDEX 01 00:46:19
  TRACK 56 AUDIO
    TITLE "16:cjc029_4754"
    INDEX 01 00:46:25
  TRACK 57 AUDIO
    TITLE "0:"
    INDEX 01 00:47:44
  TRACK 58 AUDIO
    TITLE "17:cjc029_4755"
    INDEX 01 00:48:28
  TRACK 59 AUDIO
    TITLE "0:"
    INDEX 01 00:49:14
  TRACK 60 AUDIO
    TITLE "16:cjc029_4756"
    INDEX 01 00:49:23
  TRACK 61 AUDIO
    TITLE "0:"
    INDEX 01 00:50:27
  TRACK 62 AUDIO
    TITLE "17:cjc029_4757"
    INDEX 01 00:51:11
  TRACK 63 AUDIO
    TITLE "0:"
    INDEX 01 00:52:16
  TRACK 64 AUDIO
    TITLE "16:cjc029_4758"
    INDEX 01 00:52:20
  TRACK 65 AUDIO
    TITLE "0:"
    INDEX 01 00:53:39
